Simulation
nRows=44
nColumns=15
endheader
time  TH_x TH_y TH_z SC_y  SC_z  SC_x  AC_y  AC_z  AC_x  GH_y  GH_z  GH_yy  EL_x  PS_y
5.745  0.000000  0.000000  0.000000  -49.76613087203002  19.182778276339604  42.163478219798975  67.55892774877077  -12.269997421863991  18.631905363854727  -0.7194903786021892  57.281621042404964  -20.026178383892265  18.466331941280732  120.000000
5.80245  0.000000  0.000000  0.000000  -48.259487094321216  17.89791325799802  37.92357761759033  68.00217704485797  -12.1897621935264  18.690543384664874  -1.081056415817035  57.326535375569904  -19.425011071947395  18.75322964557428  120.000000
5.8599  0.000000  0.000000  0.000000  -46.54570936531078  16.1447093900897  32.86444743428404  68.35478861824348  -12.062084387444685  18.832006399222802  -1.6303373047259966  57.28207653418609  -18.270016452927823  19.140571438805587  120.000000
5.91735  0.000000  0.000000  0.000000  -44.766637519564966  13.891555879156853  27.25379632943818  68.46381023257085  -11.953594354669205  18.978246601675576  -2.357076323727573  57.16732816647845  -16.52714342234497  19.537648884990542  120.000000
5.9748  0.000000  0.000000  0.000000  -43.07592005364808  11.168889408565978  21.403754230924093  68.18528781317015  -11.938419123784383  19.041550744278606  -3.229683512653164  56.99110299162122  -14.230619373081483  19.83594528174161  120.000000
6.03225  0.000000  0.000000  0.000000  -41.57949122944647  8.085828144308627  15.650367547642249  67.43715168154928  -12.071406536206245  18.951232590013735  -4.2026495474776935  56.73825818561485  -11.494861416786977  19.944903709845835  120.000000
6.089700000000001  0.000000  0.000000  0.000000  -40.27750651600334  4.817722758570769  10.329884815454081  66.25104635641154  -12.369477959675232  18.66796378609888  -5.245085013700336  56.34672512530358  -8.493346818311453  19.819125930382615  120.000000
6.14715  0.000000  0.000000  0.000000  -39.07522342800149  1.5739703588445964  5.741358787349991  64.75564751549501  -12.817768286361057  18.1774262128508  -6.368108506129864  55.692248112538685  -5.4116928059749965  19.455028660919684  120.000000
6.2046  0.000000  0.000000  0.000000  -37.85706171474633  -1.4196029271951955  2.121509116748488  63.12303127765085  -13.382059370150422  17.486450873731332  -7.591182172221602  54.610206595889196  -2.412330853106728  18.873331953503254  120.000000
6.26205  0.000000  0.000000  0.000000  -36.60229807599869  -3.929949689563515  -0.3974213872356076  61.521863282010166  -14.013652740270821  16.6179024964937  -8.846514285675521  52.97011939511184  0.37069526118178486  18.126508456375188  120.000000
6.3195  0.000000  0.000000  0.000000  -35.46346319364286  -5.740914876568446  -1.8200265540764282  60.06848155334156  -14.675126230666827  15.616112863251193  -9.93963265297629  50.735797126521405  2.8256043104301587  17.30399301040623  120.000000
6.37695  0.000000  0.000000  0.000000  -34.642115930530586  -6.723364188859753  -2.262193182743011  58.82729420240144  -15.367274998741383  14.546111458801894  -10.639414644058283  47.98466631734343  4.874921150997653  16.512094360824946  120.000000
6.4344  0.000000  0.000000  0.000000  -34.195042179958236  -6.910876253408468  -1.9186590463676185  57.80961494675932  -16.02261631496101  13.432408017207793  -10.784147954446468  44.80857752833634  6.486650917124745  15.845486524377085  120.000000
6.49185  0.000000  0.000000  0.000000  -34.021121248606036  -6.503208946708928  -1.060791385401746  56.95230893303476  -16.403634132251963  12.202022200615229  -10.282994645223607  41.2302555131697  7.641956837886967  15.359249590100703  120.000000
6.549300000000001  0.000000  0.000000  0.000000  -33.99313494458034  -5.729583768647672  0.0028587803442812793  56.15481368792148  -16.262866110042477  10.790324696598496  -9.00699614898857  37.276245310918064  8.249181792364611  15.08618378739242  120.000000
6.60675  0.000000  0.000000  0.000000  -34.03474676940927  -4.75787324012412  0.9886844304548985  55.31851137065463  -15.478927313111575  9.224320482088324  -6.7479345370479145  33.03860842578009  8.114370127666135  15.04171051082849  120.000000
6.6642  0.000000  0.000000  0.000000  -34.123699596724364  -3.700667599401134  1.666471723314824  54.36084052501838  -14.042815247972303  7.596364552247943  -3.237424474992895  28.673157195248255  6.955243481600996  15.213936679958804  120.000000
6.72165  0.000000  0.000000  0.000000  -34.289097437111515  -2.6534367394223355  1.8798753814954192  53.22927468096649  -12.031651765951487  6.020308228215071  1.8621315083162655  24.390788012766077  4.40341981844183  15.5642289637729  120.000000
6.7791  0.000000  0.000000  0.000000  -34.576069112582374  -1.7361710888663955  1.5613662687187853  51.91458887220468  -9.564993115711662  4.577031436562502  8.928767413697448  20.453550010031872  0.03649966668966187  16.02398787181209  120.000000
6.83655  0.000000  0.000000  0.000000  -35.02235015097417  -1.0121691017489238  0.7805361079010168  50.46474254491688  -6.82415462362568  3.321827961596303  18.316569234710094  17.123512374418794  -6.544523142127743  16.519186361139635  120.000000
6.894  0.000000  0.000000  0.000000  -35.61802487691965  -0.4958670512800718  -0.2776830732653723  48.963010729619306  -4.0264773260573525  2.278477877450193  30.065603331174398  14.609673838247373  -15.427064702431723  16.970303910159192  120.000000
6.95145  0.000000  0.000000  0.000000  -36.33624082965609  -0.17651763319439573  -1.4524169137772232  47.479428999291144  -1.3231250064602755  1.4642862037444864  43.42728151168486  12.993562220200095  -25.923488534016926  17.298224906741822  120.000000
7.008900000000001  0.000000  0.000000  0.000000  -37.15187785792102  0.011056902024718698  -2.649281626809255  46.068717554670116  1.2140371587815917  0.8798607665790947  56.903764598163214  12.17457691327366  -36.612533998743025  17.457693199666483  120.000000
7.06635  0.000000  0.000000  0.000000  -38.03204283506616  0.13531656166639663  -3.7945621420864333  44.780759055208435  3.5367571401098536  0.4949954154111683  69.0749849534033  11.929304189033497  -46.16551666464719  17.457453262652244  120.000000
7.1238  0.000000  0.000000  0.000000  -38.95066890923344  0.22960424171587082  -4.82571331512047  43.65370746921447  5.600076059036334  0.2832899863078757  79.27380464780431  12.018297270048812  -54.010823091880475  17.359746139721015  120.000000
7.18125  0.000000  0.000000  0.000000  -39.88765917977895  0.3083564463980057  -5.697855146954541  42.72234326405003  7.369728600765603  0.21938934935876905  87.48545715755631  12.25357957746376  -60.217119149531456  17.252838358745446  120.000000
7.2387  0.000000  0.000000  0.000000  -40.82808940761351  0.3898391357195045  -6.385472452825658  42.02549734956975  8.831709792720103  0.2703588502441606  93.97126376771807  12.511916259120747  -65.10533110414573  17.2130536924193  120.000000
7.29615  0.000000  0.000000  0.000000  -41.75058966602163  0.49357026092272877  -6.876349011875822  41.59094243570561  9.993247520503191  0.39738904212773657  99.04002841081494  12.714557758427192  -69.0046883079529  17.275583799660026  120.000000
7.3536  0.000000  0.000000  0.000000  -42.62914824587376  0.6328414939020687  -7.164423135484426  41.41001788313601  10.873238476371956  0.5682856285377637  102.99682928814623  12.810577029493055  -72.1937657509691  17.430802740589797  120.000000
7.41105  0.000000  0.000000  0.000000  -43.43611479740566  0.8051401857852599  -7.249247182896334  41.426955713234456  11.492892795103774  0.7619809650483581  106.14048143330852  12.775534124321073  -74.90266327830135  17.643209017829488  120.000000
7.468500000000001  0.000000  0.000000  0.000000  -44.14334711087437  0.9939423916003096  -7.142995306660275  41.561405364841036  11.875274784517662  0.9596880353073816  108.73144738598724  12.617648031185656  -77.30249361894565  17.875360289183647  120.000000
7.52595  0.000000  0.000000  0.000000  -44.73029548953237  1.187478851383557  -6.874977035109278  41.74977643338122  12.049258446604325  1.133388172862337  110.91821264507804  12.374955409582215  -79.46166414098752  18.103127377667917  120.000000
7.5834  0.000000  0.000000  0.000000  -45.18933939575402  1.3913433569733331  -6.485577152674928  41.95700848980823  12.047945137845243  1.2494192171159928  112.73326172454163  12.098290090994169  -81.35514805277943  18.32022801356054  120.000000
7.64085  0.000000  0.000000  0.000000  -45.527591701693474  1.6103819788692157  -6.0144460648947025  42.15490691012786  11.906167384585055  1.2809388230223533  114.15962651397602  11.825059399446072  -82.93007596003594  18.530338013743997  120.000000
7.6983  0.000000  0.000000  0.000000  -45.760213213892264  1.8403391217023197  -5.492995663471487  42.31706631612101  11.656305644266606  1.2165681724449633  115.196687271687  11.570098896713729  -84.1653738894433  18.738230588931483  120.000000
7.75575  0.000000  0.000000  0.000000  -45.90055695226489  2.073749772030942  -4.9440885737290685  42.42892374659574  11.323697577012226  1.0618998737341327  115.87848276793764  11.333369416535865  -85.08435577652669  18.946826387684474  120.000000
7.8132  0.000000  0.000000  0.000000  -45.96246043846856  2.300249338798428  -4.384476689915881  42.49331799003082  10.925250741603993  0.8368473660547605  116.24639709645237  11.106808022656  -85.72562328510709  19.155095318573164  120.000000
7.87065  0.000000  0.000000  0.000000  -45.958770091730074  2.511817874515393  -3.82791997129105  42.52839232737307  10.469253554586556  0.5719310636718742  116.33138476886228  10.879595612049394  -86.1225706353063  19.360266477787942  120.000000
7.928100000000001  0.000000  0.000000  0.000000  -45.90327364727916  2.701177800200837  -3.2877911547120453  42.5623639544623  9.959696976903045  0.30100360710004154  116.13176311232728  10.639316445951525  -86.27894512711765  19.560366515426104  120.000000
7.98555  0.000000  0.000000  0.000000  -45.80795275181612  2.859269461903662  -2.777951951321092  42.62306915049385  9.39995224611578  0.05568420970444315  115.62022162951514  10.371022981163062  -86.17142142235998  19.758116676024297  120.000000
8.043  0.000000  0.000000  0.000000  -45.67789478896422  2.9763260256967774  -2.31424619979278  42.72978472293081  8.79673687130789  -0.14035692521278204  114.75500254887756  10.060851659086032  -85.75635866446196  19.96384765461315  120.000000
8.10045  0.000000  0.000000  0.000000  -45.5112964700719  3.0446797100698264  -1.9126938034675234  42.87839817618643  8.16444001926813  -0.2784712153128297  113.48231047126139  9.695017795880366  -84.97378894702054  20.191842574953082  120.000000
8.1579  0.000000  0.000000  0.000000  -45.30013210494582  3.0652366298238314  -1.5917378595418004  43.04207037582136  7.531818173963473  -0.3741485752042542  111.69675605115174  9.261676433539954  -83.71473642840112  20.448992730725248  120.000000
8.21535  0.000000  0.000000  0.000000  -45.02898905922703  3.0459319655703427  -1.3787793706589742  43.17227345722651  6.940080134325445  -0.45823987135151306  109.22141783745134  8.75995396680576  -81.80591636667393  20.724180373387007  120.000000
